HIERARCHY
ROOT Hips
{
  OFFSET 208.558 93.8803 -228.541
  CHANNELS 6 Xposition Yposition Zposition Zrotation Xrotation Yrotation
  JOINT RightUpLeg
  {
    OFFSET -8.9458 -8.66707 0.101652
    CHANNELS 3 Zrotation Xrotation Yrotation
    JOINT RightLeg
    {
      OFFSET 0 -44.4227 1.3727
      CHANNELS 3 Zrotation Xrotation Yrotation
      JOINT RightFoot
      {
        OFFSET 0.253549 -42.0924 -1.46059
        CHANNELS 3 Zrotation Xrotation Yrotation
        JOINT RightToes
        {
          OFFSET 0.04 -4.41509 8.4991
          CHANNELS 3 Zrotation Xrotation Yrotation
          End Site
          {
            OFFSET -0.08 -0.137448 9.77979
          }
        }
      }
    }
  }
  JOINT Spine
  {
    OFFSET 0 11.8905 0
    CHANNELS 3 Zrotation Xrotation Yrotation
    JOINT Spine1
    {
      OFFSET 0 25.6574 0.127663
      CHANNELS 3 Zrotation Xrotation Yrotation
      JOINT HEad
      {
        OFFSET 0 8.73416 0.011341
        CHANNELS 3 Zrotation Xrotation Yrotation
        End Site
        {
          OFFSET -0.29 12.7742 2.51395
        }
      }
      JOINT LeftShoulder1
      {
        OFFSET 8.99 -0.362252 -0.22
        CHANNELS 3 Zrotation Xrotation Yrotation
        JOINT LeftArm
        {
          OFFSET 10.2827 -0.00338 0.322123
          CHANNELS 3 Zrotation Xrotation Yrotation
          JOINT LeftForeArm
          {
            OFFSET 32.7669 0.099144 -1.42434
            CHANNELS 3 Zrotation Xrotation Yrotation
            JOINT LeftHand
            {
              OFFSET 27.5643 0.085362 1.02216
              CHANNELS 3 Zrotation Xrotation Yrotation
              End Site
              {
                OFFSET 16.7443 -0.6 1.50291
              }
            }
          }
        }
      }
      JOINT RightShoulder
      {
        OFFSET -8.99 -0.362252 -0.22
        CHANNELS 3 Zrotation Xrotation Yrotation
        JOINT RightArm
        {
          OFFSET -10.2827 -0.00338 0.322123
          CHANNELS 3 Zrotation Xrotation Yrotation
          JOINT RightForeArm
          {
            OFFSET -32.8971 0.099144 -1.42434
            CHANNELS 3 Zrotation Xrotation Yrotation
            JOINT RightHand
            {
              OFFSET -27.4921 0.085362 1.02216
              CHANNELS 3 Zrotation Xrotation Yrotation
              End Site
              {
                OFFSET -16.6312 -0.6 1.50291
              }
            }
          }
        }
      }
    }
  }
  JOINT LeftUpLeg
  {
    OFFSET 8.9458 -8.66707 0.101652
    CHANNELS 3 Zrotation Xrotation Yrotation
    JOINT LeftLeg
    {
      OFFSET 0 -44.4227 1.3727
      CHANNELS 3 Zrotation Xrotation Yrotation
      JOINT LeftFoot
      {
        OFFSET -0.253549 -42.0924 -1.46059
        CHANNELS 3 Zrotation Xrotation Yrotation
        JOINT LeftToes
        {
          OFFSET -0.04 -4.41509 8.4991
          CHANNELS 3 Zrotation Xrotation Yrotation
          End Site
          {
            OFFSET 0.08 -0.047448 9.77979
          }
        }
      }
    }
  }
}
MOTION
Frames:	8
Frame Time:	0.0166667
205.482 92.8062 -222.809 -2.05787 -0.904393 -131.399 -14.5303 7.55382 12.0668 -0.117454 20.0312 -13.6935 10.8049 -21.1344 2.1716 0.0462048 0.000533403 0.662642 -2.47988 15.8673 4.56614 -7.99169e-008 -2.73655e-007 -0.0344799 -20.8484 12.6375 57.4755 0 0 -6.36111e-015 179.879 -63.5848 -156.264 -83.7252 56.6966 -49.0385 5.2643 14.3332 -3.93306 14.23 6.16967 8.68461 95.7602 -16.0161 90.5347 47.1778 37.6832 51.3046 -0.31275 23.8036 11.0735 13.3235 -22.4727 19.3903 1.99694 18.663 -7.44246 71.6276 3.6147 -2.07436 -2.0265e-009 1.5602e-007 -4.87131e-009 
206.343 93.0562 -222.82 -2.02691 -0.448454 -131.445 -14.2515 7.13635 11.2822 1.52044 22.0435 -14.9538 7.40924 -23.4626 1.59454 0.0462048 0.000533403 0.662642 -1.91022 16.0192 4.4605 -7.97822e-008 -2.73655e-007 -0.00627999 -20.6011 12.8747 57.1362 1.59028e-015 -1.59028e-015 -6.36111e-015 -178.566 -62.3441 -153.292 -89.1233 57.3846 -44.0749 4.61663 7.61934 -6.91695 15.7234 4.33842 2.33861 95.4914 -10.8147 88.21 44.6398 38.4636 53.3322 4.80371 31.1856 4.21731 13.3016 -21.4688 18.1163 1.25387 16.3132 -5.85956 74.2666 4.17429 -2.74696 -2.0265e-009 1.5602e-007 -4.87131e-009 
207.109 93.2056 -222.848 -2.30933 0.427834 -130.928 -14.3 8.14323 10.1612 3.99592 22.8658 -16.4644 3.14656 -24.2563 0.735372 0.0462048 0.000533403 0.662642 -1.10117 16.4732 3.82262 -7.97679e-008 -2.73655e-007 -0.00329 -20.0708 13.3188 56.3356 -1.59028e-015 7.95139e-016 -9.54166e-015 -175.229 -60.9773 -148.389 -96.0686 57.7134 -37.3084 4.60985 0.769887 -11.205 16.4475 3.06165 -2.65468 96.435 -8.08637 85.9785 42.4377 40.7586 57.3406 16.5047 36.6263 -5.33979 13.0964 -19.8084 15.7582 0.465514 13.4088 -3.4446 76.6056 4.83773 -3.55012 -2.0265e-009 1.5602e-007 -4.87131e-009 
207.756 93.3363 -222.903 -3.49493 2.01582 -128.349 -15.0909 13.0333 8.07174 8.51615 20.3925 -17.4721 -2.87394 -20.6351 -0.279111 0.0462048 0.000533403 0.662642 0.16955 17.5574 1.52964 -0.00458988 0.00214016 0.00178993 -18.4615 14.3229 53.5667 7.95139e-016 -7.95139e-016 -3.18055e-015 -166.287 -58.2316 -137.645 -106.321 56.4116 -25.9587 10.8738 -2.68176 -21.7261 15.2651 3.85864 -2.85501 98.977 -10.2456 85.8332 38.2033 45.8192 66.8247 36.7974 32.0687 -15.1558 11.9298 -16.9656 10.9765 -0.493999 8.94936 0.54282 79.329 5.91367 -4.82009 -2.0265e-009 1.5602e-007 -4.87131e-009 
208.321 93.5279 -222.964 -5.53791 3.80693 -123.922 -15.9481 19.8487 5.5482 14.1891 16.7731 -17.5449 -9.8099 -14.6811 -1.0347 0.0462048 0.000533403 0.662642 1.09584 19.2313 -0.725376 -0.0485562 0.0241284 0.0976091 -14.8872 15.6873 47.4533 -7.95139e-016 2.38542e-015 -0 -157.272 -55.2367 -127.793 -117.832 50.8904 -14.9145 16.2416 14.9966 -14.1124 6.1928 5.31975 4.7558 110.406 -20.7547 89.6925 29.8105 54.032 79.1882 23.7048 22.4261 -16.7379 10.1086 -13.663 4.41589 -0.869211 4.07334 5.76964 82.0365 7.08451 -6.22507 -2.0265e-009 1.5602e-007 -4.87131e-009 
207.685 93.6797 -223.415 -8.46341 5.37129 -117.895 -18.9615 27.7257 4.25907 24.709 13.7442 -17.8108 -18.6758 -8.83806 -1.46064 0.0462048 0.000533403 0.662642 1.85643 21.4187 -2.91299 -0.0296065 0.0279678 0.0914183 -9.91858 16.7412 38.4005 7.95139e-016 1.98785e-015 -0 -149.362 -52.3396 -119.517 -122.062 46.7065 -10.8229 21.4021 15.1249 -21.6744 -1.76545 5.68976 11.6185 118.935 -28.7779 97.2583 14.1667 58.0479 93.7611 45.8971 21.4139 -28.2323 8.08105 -14.4774 -3.21727 -1.70446 9.92965 15.3667 83.2101 4.28168 -1.88205 -2.0265e-009 1.5602e-007 -4.87131e-009 
207.052 93.7763 -223.851 -11.249 6.43391 -112.51 -18.6392 31.4798 2.43972 29.9382 17.7474 -18.6993 -23.6684 -4.44891 -1.89222 0.0462048 0.000533403 0.662642 2.27848 23.3292 -3.04572 -0.012327 0.0336666 0.0780074 -4.05148 16.7337 26.7438 -7.95139e-016 1.19271e-015 3.18055e-015 -142.16 -48.9944 -112.048 -122.935 44.2467 -9.27453 23.5416 23.4447 -17.6651 -9.59122 4.98394 16.7739 125.302 -34.8362 104.624 -5.99261 56.8538 105.519 31.4865 15.7331 -18.5741 6.17992 -14.8552 -9.84356 -3.20553 14.394 25.5349 83.5687 2.22452 1.53193 -2.0265e-009 1.5602e-007 -4.87131e-009 
206.535 93.5953 -224.205 -13.8383 7.05703 -107.822 -18.6515 31.1183 0.995908 35.9158 26.1478 -22.7018 -27.4488 -2.76885 -2.28862 0.0462048 0.000533403 0.662642 2.47561 24.9953 -1.38191 -0.000117458 0.0394255 0.0646666 1.88377 15.127 13.1052 3.97569e-016 -2.5842e-015 6.36111e-015 -139.303 -48.4469 -109.327 -121.907 43.9356 -9.24722 42.155 27.9228 -28.7576 -17.1866 3.6881 20.2673 129.091 -40.4062 109.545 -22.305 52.5477 106.856 40.5952 9.33354 -34.5531 4.46604 -15.2242 -15.4377 -5.26977 18.1215 35.9222 83.0643 0.819775 3.88466 -2.0265e-009 1.5602e-007 -4.87131e-009 
